Coordinates
version=1
nRows=15
nColumns=34
inDegrees=yes

Units are S.I. units (second, meters, Newtons, ...)
If the header above contains a line with 'inDegrees', this indicates whether rotational values are in degrees (yes) or radians (no).

endheader
time	pelvis_tilt	pelvis_list	pelvis_rotation	pelvis_tx	pelvis_ty	pelvis_tz	hip_flexion_r	hip_adduction_r	hip_rotation_r	knee_angle_r	ankle_angle_r	subtalar_angle_r	mtp_angle_r	hip_flexion_l	hip_adduction_l	hip_rotation_l	knee_angle_l	ankle_angle_l	subtalar_angle_l	mtp_angle_l	lumbar_extension	lumbar_bending	lumbar_rotation	arm_flex_r	arm_add_r	arm_rot_r	elbow_flex_r	pro_sup_r	arm_flex_l	arm_add_l	arm_rot_l	elbow_flex_l	pro_sup_l
      0.00000000	    -19.60826592	     -5.10848524	     11.13501609	      1.03465195	      0.84870010	     -0.12110690	     16.10948328	      2.99750934	    -27.70190928	      0.00000000	      4.32862017	     -4.01247998	      0.00000000	     -0.25014419	     -7.03777376	    -19.82019883	      0.00000000	     -8.57074386	      5.95479282	      0.00000000	     11.36320432	      7.25886779	      2.09050451	    -30.37720054	     -6.74244908	    -10.50489491	     53.00082386	     86.06608741	    -15.72450466	    -15.56898037	     16.36285686	     40.45585144	     79.68418136
      0.01666670	    -20.57025546	     -4.12677988	     11.36974659	      1.05034578	      0.85571630	     -0.11966987	     16.00245109	      2.53931540	    -29.80783808	      0.86838153	      5.55444425	     -0.59386712	      0.00000000	      0.37945731	     -5.20888587	    -23.56515972	      0.00000000	    -11.00904559	     10.62596044	      0.00000000	     12.45176487	      5.50880653	      2.40224539	    -27.87708290	     -6.01857954	    -10.87062372	     47.58527712	     86.48708885	    -15.96005709	    -14.91101612	     15.52200662	     37.93205293	     78.79163606
      0.03333330	    -20.16770995	     -2.03709002	      9.88955187	      1.06875334	      0.86091060	     -0.11486220	     13.89643392	      1.87335483	    -29.58529632	      0.00000000	      6.80114902	      1.69608924	      0.00000000	     -1.28799503	     -3.49713014	    -24.73794161	      0.00000000	    -10.75358938	     11.46618176	      0.00000000	     12.12424376	      3.25097878	      3.83181606	    -27.26628256	     -6.21833047	     -9.57667224	     47.96338003	     86.83108176	    -17.80223843	    -15.43192831	     15.15445443	     37.05134948	     78.28706545
      0.05000000	    -20.03830123	     -0.80273684	      8.85261664	      1.08066768	      0.86310180	     -0.11111042	     12.59261570	      1.15246094	    -30.08354173	      0.00000000	      9.75664906	      6.26285164	      0.00000000	     -2.69890693	     -2.67882486	    -22.46218190	      0.00000000	     -9.90770185	     11.84297844	      0.00000000	     11.91924413	      1.76394492	      4.73636005	    -27.06011642	     -6.92824956	     -7.90027203	     49.33056204	     87.15798261	    -19.63991623	    -15.26265563	     13.46636750	     36.25679318	     77.18024550
      0.06666670	    -19.94163772	      0.17276330	      7.63529111	      1.09491598	      0.86234761	     -0.10740217	     11.27817066	      0.69069469	    -29.50727249	      0.00000000	     12.03715469	      9.03734530	      0.00000000	     -3.02381711	     -2.66242439	    -19.28220693	      3.03668130	     -6.47633068	     11.46322136	      0.00000000	     11.75156269	      0.58733025	      4.16932437	    -25.64784307	     -7.93162355	     -5.88521941	     50.10872983	     87.51596214	    -22.94500041	    -13.88597840	      7.65698900	     36.58603424	     74.06907966
      0.08333330	    -20.36111886	      0.91776970	      6.66598744	      1.10843183	      0.85863735	     -0.10403533	     10.64289325	      0.26930396	    -28.96124972	      0.00000000	     13.54842639	     10.63233218	      0.00000000	     -2.00629129	     -2.93096691	    -15.56029657	      7.48816696	     -2.36838040	     10.32161918	      0.00000000	     12.15370144	     -0.16098558	      4.65569650	    -25.32003326	     -8.45089773	     -5.11563495	     51.12888875	     87.57947766	    -24.52605662	    -13.47684784	      6.39255780	     35.75849933	     73.58868287
      0.10000000	    -20.36800536	      1.59825740	      5.57367823	      1.11735145	      0.85611251	     -0.10027842	      9.62023017	     -0.06460077	    -28.87695530	      0.00000000	     14.98666804	     12.50036718	      0.00000000	     -1.09202581	     -2.98704388	    -12.30967594	     12.08848676	      0.16917909	      7.43709113	      0.00000000	     11.96591026	     -0.89277792	      4.47277914	    -23.52328149	     -9.59486420	     -2.81227800	     51.54387494	     87.80023218	    -26.05981375	    -12.30465908	      2.78243204	     35.64729721	     72.37972394
      0.11666670	    -20.27439112	      2.48799036	      4.51787479	      1.13007053	      0.85513200	     -0.09682675	      8.59085193	     -0.62782472	    -28.51371445	      0.00000000	     15.41765916	     12.78355271	      0.00000000	      0.00973218	     -2.79090722	    -11.19810557	     16.47980177	      2.75235100	      6.24201566	      0.00000000	     11.62776751	     -1.66533424	      5.59570700	    -22.32506563	     -9.75224085	     -2.39512408	     51.60248125	     87.84758013	    -26.52614409	    -12.20587905	      2.32093590	     35.57472501	     72.24624208
      0.13333330	    -20.38617599	      3.47058573	      4.02648461	      1.14092430	      0.85570007	     -0.09422845	      7.76801145	     -1.45637461	    -28.48513648	      0.00000000	     16.08473158	     13.26647873	      0.00000000	      1.50781724	     -2.30818401	    -10.72745286	     19.88387069	      4.34033679	      5.07386603	      0.00000000	     11.42235122	     -2.76855076	      6.44560021	    -21.26697205	     -9.84187451	     -1.78241667	     51.61815622	     87.93818586	    -26.77726221	    -12.19250948	      1.69182145	     35.32057008	     72.05267124
      0.15000000	    -20.52567347	      4.75728213	      4.30499939	      1.14665772	      0.85733497	     -0.09282408	      7.08245112	     -2.79413319	    -30.33856659	      0.00000000	     17.12820972	     15.88313255	      0.00000000	      3.13756227	     -1.28313262	    -10.70397853	     21.98413917	      4.25631526	      3.68692681	      0.00000000	     11.20670882	     -4.66394559	      4.88107765	    -18.31722923	    -11.07783473	      3.02681952	     49.95322141	     88.53297113	    -27.54512674	    -10.91441017	     -2.55914624	     34.36109154	     70.75617734
      0.16666670	    -20.72002159	      6.09337287	      4.88876261	      1.15107452	      0.85948162	     -0.09148454	      6.65750062	     -4.16957992	    -31.00590283	      0.00000000	     17.26006969	     15.41400967	      0.00000000	      4.93706329	     -0.22530593	    -12.26926879	     22.92520776	      3.49101859	      3.92825134	      0.00000000	     10.73962882	     -6.39285166	      5.36046361	    -17.27808988	    -10.94288655	      3.38678640	     49.97625259	     88.53156567	    -26.96567093	    -11.38589677	     -2.92818949	     34.49284889	     70.72057180
      0.18333330	    -20.95112695	      7.48511112	      5.43924400	      1.15538139	      0.86314867	     -0.09034816	      6.38329466	     -5.67258109	    -31.84089361	      0.00000000	     17.51388320	     16.14305174	      0.00000000	      6.39568162	      1.13015691	    -14.60262909	     22.31327941	      2.29069471	      4.38361534	      0.00000000	     10.39068922	     -8.16188420	      5.60773157	    -15.70478021	    -10.95272626	      4.19864932	     49.82079293	     88.57777644	    -25.87580796	    -11.57616509	     -3.47297630	     33.74875104	     70.75154574
      0.20000000	    -21.47753389	      8.50003547	      5.95940281	      1.17231680	      0.86481408	     -0.09092674	      6.04346566	     -6.83427557	    -32.75765893	      0.00000000	     16.63702722	     16.41166393	      0.00000000	      7.16417276	      2.65948064	    -15.98257338	     19.98563110	      1.74007029	      5.41423901	      0.00000000	     10.82569103	     -9.47581346	      5.55290425	    -14.84424373	    -11.01036366	      4.26751469	     50.41368036	     88.59932777	    -25.46135187	    -11.65753208	     -3.60106540	     33.62849451	     70.79587503
      0.21666670	    -21.78671577	      9.31798233	      6.00362923	      1.19068969	      0.86630071	     -0.09059967	      5.22632749	     -7.65644809	    -33.84032859	      0.00000000	     16.50069716	     17.66904561	      0.00000000	      7.26670607	      4.00718664	    -18.55650913	     16.48167507	      2.75314091	      8.48698117	      0.00000000	     11.41490133	    -10.40757789	      5.79832472	    -14.28173845	    -11.29337438	      4.61941603	     51.64800065	     88.80686626	    -25.40998239	    -11.43018905	     -4.32236232	     33.37545665	     70.99452249
      0.23333330	    -22.47579646	      9.63574503	      6.01616115	      1.20469104	      0.86654706	     -0.09050048	      4.83565646	     -7.99834381	    -34.35684334	      0.00000000	     15.83701411	     17.98719283	      0.00000000	      7.59222246	      5.13515813	    -20.14602626	     12.44128918	      3.95425691	     11.55397073	      0.00000000	     12.55308138	    -10.82594157	      5.85592871	    -14.01314555	    -11.65554931	      4.79155476	     52.96437325	     89.06389334	    -25.95788538	    -11.06764835	     -5.21465226	     33.80544100	     71.30184324
